<?xml version="1.0" encoding="UTF-8"?>
<svg xmlns="http://www.w3.org/2000/svg" viewBox="0 0 1024 1024" role="img" aria-labelledby="title desc">
  <title id="title">Car Locator Saab badge</title>
  <desc id="desc">A clean Saab-inspired round badge on a light blue rounded app icon background.</desc>

  <defs>
    <linearGradient id="bg" x1="160" y1="120" x2="864" y2="904" gradientUnits="userSpaceOnUse">
      <stop offset="0" stop-color="#eef7ff"/>
      <stop offset="1" stop-color="#bedcff"/>
    </linearGradient>
    <radialGradient id="badgeBlue" cx="50%" cy="42%" r="58%">
      <stop offset="0" stop-color="#214d7a"/>
      <stop offset="1" stop-color="#10304d"/>
    </radialGradient>
    <linearGradient id="ring" x1="300" y1="250" x2="724" y2="774" gradientUnits="userSpaceOnUse">
      <stop offset="0" stop-color="#ffffff"/>
      <stop offset="1" stop-color="#b8c8d7"/>
    </linearGradient>
  </defs>

  <rect x="32" y="32" width="960" height="960" rx="236" ry="236" fill="url(#bg)"/>

  <circle cx="512" cy="512" r="226" fill="url(#ring)"/>
  <circle cx="512" cy="512" r="198" fill="url(#badgeBlue)"/>
  <ellipse cx="512" cy="452" rx="170" ry="134" fill="#2b5784" opacity=".72"/>
  <circle cx="512" cy="512" r="182" fill="none" stroke="#3d6388" stroke-width="6" opacity=".45"/>

  <text x="512" y="382" text-anchor="middle" font-family="Avenir Next, Helvetica, Arial, sans-serif" font-size="82" font-weight="700" letter-spacing="12" fill="#f4f8fc">SAAB</text>

  <g transform="translate(512 578)">
    <path d="M-82 42-56-4-6-32 54-30 102-4 126 36 128 80 114 126 80 170 36 194-12 198-8 158 24 148 54 128 78 98 88 58 80 28 58 10 26 4-10 12-38 30-58 60Z" fill="#d92f34"/>
    <path d="M-108 58-82 16-56 32-66 58-52 88-74 116-108 126-130 96-124 72Z" fill="#d92f34"/>
    <path d="M26 12 54-16 96-24 128-10 142 12 134 34 112 48 84 52 54 48 30 36Z" fill="#d92f34"/>
    <path d="M80-72 106-112 132-72 162-78 154-48 182-30 154-12 162 18 132 12 110 50 88 12 56 18 66-12 38-30 66-48Z" fill="#f0c44c"/>
    <circle cx="132" cy="-72" r="9" fill="#f7de8f"/>
  </g>
</svg>
